# AST/ASF file generated using VICON BodyLanguage
# -----------------------------------------------
:version 1.10
:name VICON
:units
  mass 1.0
  length 0.45
  angle deg
:documentation
   .ast/.asf automatically generated from VICON data using
   VICON BodyBuilder and BodyLanguage model FoxedUp or BRILLIANT.MOD
:root
   order TX TY TZ RX RY RZ
   axis XYZ
   position 0 0 0  
   orientation 0 0 0 
:bonedata
  begin
     id 1 
     name lhipjoint
     direction 0.54267 -0.795011 0.271047 
     length 2.39899 
     axis 0 0 0  XYZ
  end
  begin
     id 2 
     name lfemur
     direction 0.34202 -0.939693 0  
     length 7.49701  
     axis 0 0 20  XYZ
    dof rx ry rz
    limits (-160.0 20.0)
           (-70.0 70.0)
           (-60.0 70.0)
  end
  begin
     id 3 
     name ltibia
     direction 0.34202 -0.939693 0   
     length 8.1668   
     axis 0 0 20   XYZ
    dof rx
    limits (-10.0 170.0)
  end
  begin
     id 4 
     name lfoot
     direction 0.0736283 -0.202292 0.976554   
     length 2.13544   
     axis -90 7.62852e-016 20   XYZ
    dof rx rz
    limits (-45.0 90.0)
           (-70.0 20.0)
  end
  begin
     id 5 
     name ltoes
     direction 1.53557e-011 -4.22024e-011 1   
     length 1.07411   
     axis -90 7.62852e-016 20   XYZ
    dof rx
    limits (-90.0 20.0)
  end
  begin
     id 6 
     name rhipjoint
     direction -0.538061 -0.797813 0.272002   
     length 2.39057  
     axis 0 0 0  XYZ 
  end
  begin
     id 7 
     name rfemur
     direction -0.34202 -0.939693 0   
     length 7.50152   
     axis 0 0 -20   XYZ
    dof rx ry rz
    limits (-160.0 20.0)
           (-70.0 70.0)
           (-70.0 60.0)
  end
  begin
     id 8 
     name rtibia
     direction -0.34202 -0.939693 0   
     length 8.05793   
     axis 0 0 -20   XYZ
    dof rx
    limits (-10.0 170.0)
 end
 begin
     id 9 
     name rfoot
     direction -0.0765195 -0.210236 0.974652   
     length 2.28698  
     axis -90 -7.62852e-016 -20   XYZ
    dof rx rz
    limits (-45.0 90.0)
           (-20.0 70.0)
  end
  begin
     id 10 
     name rtoes
     direction -1.53542e-011 -4.21847e-011 1   
     length 1.14762   
     axis -90 -7.62852e-016 -20   XYZ
    dof rx
    limits (-90.0 20.0)
  end
  begin
     id 11 
     name lowerback
     direction -0.0217239 0.996592 -0.0795765   
     length 2.08176   
     axis 0 0 0   XYZ
    dof rx ry rz
    limits (-20.0 45.0)
           (-30.0 30.0)
           (-30.0 30.0)
  end
  begin
     id 12 
     name upperback
     direction -0.00563773 0.999651 -0.0258155   
     length 2.08898   
     axis 0 0 0   XYZ
    dof rx ry rz
    limits (-20.0 45.0)
           (-30.0 30.0)
           (-30.0 30.0)
  end
  begin
     id 13 
     name thorax
     direction 0.0032706 0.999923 0.0119599   
     length 2.0968   
     axis 0 0 0   XYZ
    dof rx ry rz
    limits (-20.0 45.0)
           (-30.0 30.0)
           (-30.0 30.0)
  end
  begin
     id 14 
     name lowerneck
     direction -0.0285886 0.99568 0.0883427   
     length 1.81272   
     axis 0 0 0   XYZ
    dof rx ry rz
    limits (-20.0 45.0)
           (-30.0 30.0)
           (-30.0 30.0)
  end
  begin
     id 15 
     name upperneck
     direction 0.0807535 0.97985 -0.18268   
     length 1.82518   
     axis 0 0 0   XYZ
    dof rx ry rz
    limits (-20.0 45.0)
           (-30.0 30.0)
           (-30.0 30.0)
  end
  begin
     id 16
     name head
     direction 0.0236605 0.997053 -0.0729767  
     length 1.84443  
     axis 0 0 0   XYZ
    dof rx ry rz
    limits (-20.0 45.0)
           (-30.0 30.0)
           (-30.0 30.0)
  end
  begin
     id 17 
     name lclavicle
     direction 0.918986 0.39378 -0.0200683  
     length 3.27822  
     axis 0 0 0   XYZ
    dof ry rz
    limits (-20.0 10.0)
           (0.0 20.0)
  end
  begin
     id 18 
     name lhumerus
     direction 1 -4.4897e-011 2.09544e-027   
     length 5.5568   
     axis 180 -30 -90   XYZ
    dof rx ry rz
    limits (-60.0 90.0)
           (-90.0 90.0)
           (-90.0 90.0)
  end
  begin
     id 19
     name lradius
     direction 1 -4.48957e-011 -1.27696e-026   
     length 3.63979   
     axis 180 -30 -90   XYZ
    dof rx
    limits (-10.0 170.0)
  end
  begin
     id 20
     name lwrist
     direction 1 -4.49001e-011 -1.49001e-026   
     length 1.8199   
     axis 9.0955e-015 90 90   XYZ
    dof ry
    limits (-180.0 0.0)
 end
  begin
     id 21 
     name lhand
     direction 1 -4.48709e-011 -2.9758e-026   
     length 0.569419   
     axis 1.90115e-014 90 90   XYZ
    dof rx rz
    limits (-90.0 90.0)
           (-45.0 45.0)
  end
  begin
     id 22 
     name lfingers
     direction 1 -4.49175e-011 -5.96505e-026   
     length 0.45908   
     axis 3.80223e-014 90 90   XYZ
    dof rx
    limits (0.0 90.0)
  end
  begin
     id 23
     name lthumb
     direction 0.707107 -6.34864e-011 0.707107   
     length 0.65915   
     axis -90 45 -3.84942e-014   XYZ
    dof rx rz
    limits (-45.0 45.0)
           (-45.0 45.0)
  end
  begin
     id 24 
     name rclavicle
     direction -0.911913 0.396426 -0.106115   
     length 3.46301  
     axis 0 0 0   XYZ 
    dof ry rz
    limits (-10.0 20.0)
           (-20.0 0.0)
  end
  begin
     id 25 
     name rhumerus
     direction -1 -4.48965e-011 7.78516e-028  
     length 5.34339   
     axis 180 30 90   XYZ
    dof rx ry rz
    limits (-90.0 60.0)
           (-90.0 90.0)
           (-90.0 90.0)
  end
  begin
     id 26 
     name rradius
     direction -1 -4.48948e-011 -5.79823e-027   
     length 3.65101   
     axis 180 30 90   XYZ
    dof rx
    limits (-10.0 170.0)
  end
  begin
     id 27 
     name rwrist
     direction -1 -4.48995e-011 -1.48996e-026   
     length 1.8255   
     axis 9.0955e-015 -90 -90   XYZ
    dof ry
    limits (-180.0 0.0)
  end
  begin
     id 28
     name rhand
     direction -1 -4.48957e-011 -2.97937e-026   
     length 0.694249   
     axis 1.90115e-014 -90 -90   XYZ
    dof rx rz
    limits (-90.0 90.0)
           (-45.0 45.0)
  end
  begin
     id 29
     name rfingers
     direction -1 -4.4898e-011 -5.95943e-026   
     length 0.559721   
     axis 3.80223e-014 -90 -90   XYZ
    dof rx
    limits (0.0 90.0)
  end
  begin
     id 30
     name rthumb
     direction -0.707107 -6.34969e-011 0.707107   
     length 0.803651   
     axis -90 -45 3.84942e-014   XYZ
    dof rx rz
    limits (-45.0 45.0)
           (-45.0 45.0)
  end
:hierarchy
  begin
    root lhipjoint rhipjoint lowerback
    lhipjoint lfemur
    lfemur ltibia
    ltibia lfoot
    lfoot ltoes
    rhipjoint rfemur
    rfemur rtibia
    rtibia rfoot
    rfoot rtoes
    lowerback upperback
    upperback thorax
    thorax lowerneck lclavicle rclavicle
    lowerneck upperneck
    upperneck head
    lclavicle lhumerus
    lhumerus lradius
    lradius lwrist
    lwrist lhand lthumb
    lhand lfingers
    rclavicle rhumerus
    rhumerus rradius
    rradius rwrist
    rwrist rhand rthumb
    rhand rfingers
  end

#!OML:ASF H:\Terrain\Walking\May29\JustinRory\rory.ASF
:FULLY-SPECIFIED
:DEGREES
32
root 4.38634 13.7445 12.0492 180.982 -3.11774 182.269
lowerback 44.6296 -3.2239 -19.251
upperback 8.85014 -18.0851 -3.9368
thorax -6.66726 -10.0717 12.1974
lowerneck -9.91996 -9.53996 -9.38824
upperneck 29.1817 -14.7853 13.7761
head 13.2676 -5.70788 4.80035
rclavicle 1.1609e-013 -1.27222e-014
rhumerus -65.0159 -11.2709 -25.1186
rradius 27.1615
rwrist 0.217093
rhand -32.7539 37.6534
rfingers 7.12502
rthumb -5.97663 7.75767
lclavicle 1.1609e-013 -1.27222e-014
lhumerus -42.9247 0.390717 20.4803
lradius 28.4406
lwrist 13.073
lhand -18.815 19.5778
lfingers 7.12502
lthumb 7.48372 49.4254
rfemur -72.8181 6.51762 15.6656
rtibia 67.8611
rfoot 7.65758 1.07264
rtoes -3.24685
lfemur -50.7714 15.6146 11.0264
ltibia 88.5923
lfoot -9.84227 1.16545
ltoes -33.0507
33
root 4.49862 13.7868 11.8351 180.373 -2.59647 181.621
lowerback 45.4144 -2.98027 -20.3049
upperback 8.69192 -18.7069 -4.1978
thorax -6.72828 -10.373 12.6237
lowerneck -9.13391 -9.17194 -10.6747
upperneck 29.2959 -14.1649 14.3594
head 13.2203 -5.53686 5.40704
rclavicle 1.19271e-013 3.49861e-014
rhumerus -64.0811 -9.88839 -26.154
rradius 26.2815
rwrist 0.856776
rhand -30.9894 34.3512
rfingers 7.12502
rthumb -4.27286 4.41428
lclavicle 1.19271e-013 3.49861e-014
lhumerus -46.2013 0.628941 20.8976
lradius 28.1645
lwrist 13.0005
lhand -18.1946 18.9558
lfingers 7.12502
lthumb 8.08254 48.7813
rfemur -71.9679 6.60675 16.1029
rtibia 68.9848
rfoot 6.39168 0.722933
rtoes -3.13371
lfemur -50.6091 15.8334 10.327
ltibia 90.1509
lfoot -6.84928 3.16695
ltoes -28.8098
34
root 4.5996 13.8454 11.6208 179.8 -2.08207 181.192
lowerback 46.9284 -2.35224 -21.3982
upperback 7.57788 -19.0741 -3.47392
thorax -6.75127 -10.5526 12.88
lowerneck -7.85451 -8.93023 -11.916
upperneck 28.8733 -13.7774 15.0062
head 12.8681 -5.50553 5.97799
rclavicle -8.74653e-014 -8.90555e-014
rhumerus -63.5181 -8.51816 -27.1602
rradius 25.4981
rwrist 1.2832
rhand -28.4837 29.3482
rfingers 7.12502
rthumb -1.85305 -0.623512
lclavicle -8.74653e-014 -8.90555e-014
lhumerus -48.8698 1.01788 21.4993
lradius 27.7293
lwrist 12.1832
lhand -17.9713 18.1191
lfingers 7.12502
lthumb 8.29804 47.9361
rfemur -71.0142 6.55312 16.8004
rtibia 69.7764
rfoot 5.07734 1.10814
rtoes -2.30758
lfemur -50.4021 15.9521 9.81942
ltibia 91.4931
lfoot -4.24987 4.32862
ltoes -26.549
35
root 4.68656 13.8826 11.411 179.747 -1.43238 181.321
lowerback 46.9427 -2.14684 -21.5801
upperback 7.67014 -19.0268 -3.54143
thorax -6.6409 -10.5843 12.8387
lowerneck -6.59791 -8.78283 -12.4497
upperneck 28.0853 -13.6672 15.6562
head 12.358 -5.53206 6.35369
rclavicle -1.25632e-013 1.59028e-014
rhumerus -63.4837 -7.91558 -28.2232
rradius 24.8545
rwrist 1.99418
rhand -26.1566 25.7351
rfingers 7.12502
rthumb 0.394489 -4.24424
lclavicle -1.25632e-013 1.59028e-014
lhumerus -50.5992 1.46278 22.1396
lradius 27.2364
lwrist 11.2392
lhand -17.4858 18.2681
lfingers 7.12502
lthumb 8.76655 48.066
rfemur -70.5415 6.51523 18.0745
rtibia 70.6145
rfoot 4.08343 1.51949
rtoes -2.0181
lfemur -50.8091 16.4799 9.93513
ltibia 92.9024
lfoot -3.12799 3.29276
ltoes -24.5418
36
root 4.76828 13.8969 11.2058 180.276 -0.728369 182.851
lowerback 46.2618 -2.52185 -20.5162
upperback 8.11225 -18.7171 -3.53944
thorax -6.36141 -10.5168 12.3101
lowerneck -6.19835 -8.80841 -12.9312
upperneck 27.9489 -13.832 16.2983
head 12.3508 -5.62043 6.68289
rclavicle 4.29375e-014 9.22361e-014
rhumerus -63.2464 -7.5483 -30.0044
rradius 24.2372
rwrist 2.70405
rhand -24.1415 22.3075
rfingers 7.12502
rthumb 2.34072 -7.65936
lclavicle 4.29375e-014 9.22361e-014
lhumerus -51.8079 2.58736 22.4608
lradius 26.6038
lwrist 9.72802
lhand -16.8455 18.3866
lfingers 7.12502
lthumb 9.38438 48.1577
rfemur -70.704 6.8295 20.62
rtibia 71.3543
rfoot 3.64332 1.79751
rtoes -2.39592
lfemur -52.0247 17.7896 11.4983
ltibia 94.3024
lfoot -2.93645 -0.25438
ltoes -21.748
37
root 4.84678 13.917 11.0058 180.871 -0.149099 184.67
lowerback 45.0938 -3.23535 -19.1105
upperback 9.20537 -18.4154 -3.98382
thorax -6.3859 -10.3722 12.1853
lowerneck -5.88601 -8.83851 -13.694
upperneck 28.0736 -13.902 16.6675
head 12.4523 -5.7164 6.97906
rclavicle -7.63333e-014 -7.31528e-014
rhumerus -62.7776 -6.21672 -32.5129
rradius 23.8345
rwrist 2.78394
rhand -22.0492 19.4851
rfingers 7.12502
rthumb 4.36128 -10.45
lclavicle -7.63333e-014 -7.31528e-014
lhumerus -53.2889 3.87085 22.8775
lradius 26.0256
lwrist 7.87812
lhand -17.0154 18.2881
lfingers 7.12502
lthumb 9.22045 48.0665
rfemur -70.9037 7.08091 23.5023
rtibia 72.0797
rfoot 1.69705 1.81668
rtoes 1.2148
lfemur -53.4671 19.1606 13.1051
ltibia 95.6117
lfoot -2.50038 -4.15724
ltoes -18.1104
38
root 4.93527 13.9906 10.806 180.661 -0.212384 184.149
lowerback 45.5322 -3.32979 -19.5423
upperback 9.2862 -19.0067 -4.18444
thorax -6.22762 -10.7067 12.3444
lowerneck -5.24819 -8.60582 -14.561
upperneck 28.0753 -13.5768 17.0592
head 12.3612 -5.65782 7.37356
rclavicle 4.6118e-014 0
rhumerus -62.4565 -3.87812 -35.8122
rradius 23.8786
rwrist 2.35914
rhand -20.138 17.6238
rfingers 7.12502
rthumb 6.20657 -12.2653
lclavicle 4.6118e-014 0
lhumerus -55.0627 4.87258 23.3084
lradius 25.7138
lwrist 6.55115
lhand -17.1344 18.2539
lfingers 7.12502
lthumb 9.10563 48.0374
rfemur -70.3694 6.16944 24.1602
rtibia 73.035
rfoot 0.138858 2.68006
rtoes -2.72548
lfemur -54.1852 18.6903 11.6088
ltibia 96.6334
lfoot -2.74852 -6.04097
ltoes -17.8038
